# xmcd CD database file
#
# Track frame offsets:
#	150
#	15355
#	29587
#	41512
#	52307
#	63015
#	76502
#	96747
#	117212
#	127035
#	142075
#	149935
#	159947
#	171640
#	183407
#	192622
#	203865
#	210762
#	216747
#	220790
#	225957
#	234865
#	237905
#	244502
#	254362
#	261925
#	264750
#	268030
#	275372
#	280687
#	287502
#	290200
#	309997
#	313372
#	318455
#	325652
#	333295
#
# Disc length: 4536 seconds
#
# Revision: 0
# Processed by: cddbd v1.5.1PL0 Copyright (c) Steve Scherf et al.
# Submitted via: CDex 1.51
#
DISCID=3911b625
DTITLE=Sonoton Authentic Series - SAS 059 - Authentic Poland
DYEAR=1995
DGENRE=Contentum
TTITLE0=Polonaise - King Wladislaw Jagiello
TTITLE1=Polonaise - Folk polonaise
TTITLE2=Polonaise - Polonaise
TTITLE3=Mazurka - Clean water
TTITLE4=Mazurka - Piastowski mazurka
TTITLE5=Krakowiak - Cracow neighbourhood
TTITLE6=Krakowiak - Memories from Ojcow
TTITLE7=Krakowiak - From cracow to Makow
TTITLE8=Kujawiak - A souvenir for you
TTITLE9=Kujawiak - A happy cirkle
TTITLE10=Oberek - Oberek from Poznan
TTITLE11=Oberek - Wedding Oberek
TTITLE12=Oberek - Lazy
TTITLE13=Oberek - At the raciborz marketplace
TTITLE14=Polka - Sly Sophie
TTITLE15=Polka - Courting clarinets
TTITLE16=Songs and dances - Ciezyn polka
TTITLE17=Songs and dances - Silesian czardas
TTITLE18=Songs and dances - Running water
TTITLE19=Songs and dances - Gander song
TTITLE20=Songs and dances - What do you feel?
TTITLE21=Songs and dances - In the green forest
TTITLE22=Songs and dances - Mountains
TTITLE23=Songs and dances - Kolomajki
TTITLE24=Songs and dances - Beskids dance suite
TTITLE25=Songs and dances - Barani
TTITLE26=Songs and dances - As Janiczek went by
TTITLE27=Songs and dances - My little bench
TTITLE28=Songs and dances - Let gajdziczki play
TTITLE29=Songs and dances - Hungarian walk
TTITLE30=Songs and dances - Czwork
TTITLE31=Songs and dances - Bagpipe music
TTITLE32=Songs and dances - Kucznierz
TTITLE33=Songs and dances - Promenade polka
TTITLE34=Songs and dances - Village wedding ceremony
TTITLE35=Songs and dances - Hey. freedom
TTITLE36=Songs and dances - Kroczek
EXTD=YEAR: 1995
EXTT0=
EXTT1=
EXTT2=
EXTT3=
EXTT4=
EXTT5=
EXTT6=
EXTT7=
EXTT8=
EXTT9=
EXTT10=
EXTT11=
EXTT12=
EXTT13=
EXTT14=
EXTT15=
EXTT16=
EXTT17=
EXTT18=
EXTT19=
EXTT20=
EXTT21=
EXTT22=
EXTT23=
EXTT24=
EXTT25=
EXTT26=
EXTT27=
EXTT28=
EXTT29=
EXTT30=
EXTT31=
EXTT32=
EXTT33=
EXTT34=
EXTT35=
EXTT36=
PLAYORDER=
